<?xml version="1.0" encoding="UTF-8"?>
<svg xmlns="http://www.w3.org/2000/svg" xmlns:xlink="http://www.w3.org/1999/xlink" width="600" height="42" viewBox="0 0 600 42">
<defs>
<g>
<g id="glyph-0-0">
<path d="M 8.03125 -3.0625 C 8.03125 -2.039062 7.660156 -1.25 6.921875 -0.6875 C 6.191406 -0.125 5.203125 0.15625 3.953125 0.15625 C 3.304688 0.15625 2.710938 0.109375 2.171875 0.015625 C 1.628906 -0.078125 1.175781 -0.210938 0.8125 -0.390625 L 0.8125 -1.765625 C 1.195312 -1.585938 1.675781 -1.429688 2.25 -1.296875 C 2.820312 -1.160156 3.410156 -1.09375 4.015625 -1.09375 C 4.867188 -1.09375 5.507812 -1.253906 5.9375 -1.578125 C 6.375 -1.910156 6.59375 -2.359375 6.59375 -2.921875 C 6.59375 -3.296875 6.507812 -3.609375 6.34375 -3.859375 C 6.1875 -4.117188 5.910156 -4.359375 5.515625 -4.578125 C 5.128906 -4.796875 4.59375 -5.03125 3.90625 -5.28125 C 2.9375 -5.632812 2.203125 -6.066406 1.703125 -6.578125 C 1.203125 -7.085938 0.953125 -7.785156 0.953125 -8.671875 C 0.953125 -9.273438 1.109375 -9.789062 1.421875 -10.21875 C 1.734375 -10.65625 2.160156 -10.988281 2.703125 -11.21875 C 3.253906 -11.457031 3.890625 -11.578125 4.609375 -11.578125 C 5.234375 -11.578125 5.804688 -11.519531 6.328125 -11.40625 C 6.859375 -11.289062 7.335938 -11.132812 7.765625 -10.9375 L 7.3125 -9.71875 C 6.914062 -9.882812 6.484375 -10.023438 6.015625 -10.140625 C 5.554688 -10.253906 5.078125 -10.3125 4.578125 -10.3125 C 3.859375 -10.3125 3.316406 -10.160156 2.953125 -9.859375 C 2.597656 -9.554688 2.421875 -9.15625 2.421875 -8.65625 C 2.421875 -8.269531 2.5 -7.945312 2.65625 -7.6875 C 2.8125 -7.4375 3.070312 -7.207031 3.4375 -7 C 3.800781 -6.800781 4.289062 -6.585938 4.90625 -6.359375 C 5.582031 -6.109375 6.148438 -5.84375 6.609375 -5.5625 C 7.078125 -5.28125 7.429688 -4.941406 7.671875 -4.546875 C 7.910156 -4.148438 8.03125 -3.65625 8.03125 -3.0625 Z M 8.03125 -3.0625 "/>
</g>
<g id="glyph-0-1">
<path d="M 8.8125 -4.296875 C 8.8125 -2.878906 8.453125 -1.78125 7.734375 -1 C 7.015625 -0.226562 6.039062 0.15625 4.8125 0.15625 C 4.0625 0.15625 3.390625 -0.015625 2.796875 -0.359375 C 2.203125 -0.703125 1.734375 -1.207031 1.390625 -1.875 C 1.046875 -2.539062 0.875 -3.347656 0.875 -4.296875 C 0.875 -5.722656 1.234375 -6.816406 1.953125 -7.578125 C 2.671875 -8.347656 3.640625 -8.734375 4.859375 -8.734375 C 5.640625 -8.734375 6.328125 -8.5625 6.921875 -8.21875 C 7.515625 -7.875 7.976562 -7.375 8.3125 -6.71875 C 8.644531 -6.0625 8.8125 -5.253906 8.8125 -4.296875 Z M 2.34375 -4.296875 C 2.34375 -3.285156 2.539062 -2.484375 2.9375 -1.890625 C 3.332031 -1.304688 3.96875 -1.015625 4.84375 -1.015625 C 5.707031 -1.015625 6.34375 -1.304688 6.75 -1.890625 C 7.15625 -2.484375 7.359375 -3.285156 7.359375 -4.296875 C 7.359375 -5.316406 7.15625 -6.113281 6.75 -6.6875 C 6.34375 -7.257812 5.703125 -7.546875 4.828125 -7.546875 C 3.953125 -7.546875 3.316406 -7.257812 2.921875 -6.6875 C 2.535156 -6.113281 2.34375 -5.316406 2.34375 -4.296875 Z M 2.34375 -4.296875 "/>
</g>
<g id="glyph-0-2">
<path d="M 2.765625 0 L 1.359375 0 L 1.359375 -12.15625 L 2.765625 -12.15625 Z M 2.765625 0 "/>
</g>
<g id="glyph-0-3">
<path d="M 2.078125 -11.796875 C 2.296875 -11.796875 2.484375 -11.722656 2.640625 -11.578125 C 2.804688 -11.429688 2.890625 -11.203125 2.890625 -10.890625 C 2.890625 -10.597656 2.804688 -10.375 2.640625 -10.21875 C 2.484375 -10.070312 2.296875 -10 2.078125 -10 C 1.847656 -10 1.648438 -10.070312 1.484375 -10.21875 C 1.328125 -10.375 1.25 -10.597656 1.25 -10.890625 C 1.25 -11.203125 1.328125 -11.429688 1.484375 -11.578125 C 1.648438 -11.722656 1.847656 -11.796875 2.078125 -11.796875 Z M 2.765625 -8.578125 L 2.765625 0 L 1.359375 0 L 1.359375 -8.578125 Z M 2.765625 -8.578125 "/>
</g>
<g id="glyph-0-4">
<path d="M 4.40625 0.15625 C 3.332031 0.15625 2.472656 -0.210938 1.828125 -0.953125 C 1.191406 -1.691406 0.875 -2.796875 0.875 -4.265625 C 0.875 -5.742188 1.195312 -6.859375 1.84375 -7.609375 C 2.488281 -8.359375 3.347656 -8.734375 4.421875 -8.734375 C 5.078125 -8.734375 5.613281 -8.609375 6.03125 -8.359375 C 6.457031 -8.117188 6.804688 -7.820312 7.078125 -7.46875 L 7.171875 -7.46875 C 7.160156 -7.613281 7.140625 -7.820312 7.109375 -8.09375 C 7.085938 -8.363281 7.078125 -8.578125 7.078125 -8.734375 L 7.078125 -12.15625 L 8.484375 -12.15625 L 8.484375 0 L 7.34375 0 L 7.140625 -1.15625 L 7.078125 -1.15625 C 6.816406 -0.789062 6.472656 -0.476562 6.046875 -0.21875 C 5.617188 0.03125 5.070312 0.15625 4.40625 0.15625 Z M 4.625 -1.015625 C 5.53125 -1.015625 6.164062 -1.257812 6.53125 -1.75 C 6.90625 -2.25 7.09375 -3 7.09375 -4 L 7.09375 -4.25 C 7.09375 -5.320312 6.914062 -6.140625 6.5625 -6.703125 C 6.207031 -7.273438 5.554688 -7.5625 4.609375 -7.5625 C 3.847656 -7.5625 3.28125 -7.257812 2.90625 -6.65625 C 2.53125 -6.0625 2.34375 -5.253906 2.34375 -4.234375 C 2.34375 -3.210938 2.53125 -2.421875 2.90625 -1.859375 C 3.28125 -1.296875 3.851562 -1.015625 4.625 -1.015625 Z M 4.625 -1.015625 "/>
</g>
<g id="glyph-0-5">
<path d="M 10.703125 -5.828125 C 10.703125 -3.890625 10.175781 -2.429688 9.125 -1.453125 C 8.070312 -0.484375 6.609375 0 4.734375 0 L 1.546875 0 L 1.546875 -11.421875 L 5.078125 -11.421875 C 6.222656 -11.421875 7.21875 -11.207031 8.0625 -10.78125 C 8.90625 -10.351562 9.554688 -9.722656 10.015625 -8.890625 C 10.472656 -8.066406 10.703125 -7.046875 10.703125 -5.828125 Z M 9.1875 -5.78125 C 9.1875 -7.300781 8.804688 -8.414062 8.046875 -9.125 C 7.296875 -9.832031 6.234375 -10.1875 4.859375 -10.1875 L 2.984375 -10.1875 L 2.984375 -1.234375 L 4.546875 -1.234375 C 7.640625 -1.234375 9.1875 -2.75 9.1875 -5.78125 Z M 9.1875 -5.78125 "/>
</g>
<g id="glyph-0-6">
<path d="M 4.21875 -0.984375 C 4.4375 -0.984375 4.65625 -1.003906 4.875 -1.046875 C 5.101562 -1.085938 5.285156 -1.128906 5.421875 -1.171875 L 5.421875 -0.09375 C 5.273438 -0.0195312 5.0625 0.0351562 4.78125 0.078125 C 4.507812 0.128906 4.242188 0.15625 3.984375 0.15625 C 3.535156 0.15625 3.117188 0.0820312 2.734375 -0.0625 C 2.359375 -0.21875 2.050781 -0.488281 1.8125 -0.875 C 1.582031 -1.257812 1.46875 -1.800781 1.46875 -2.5 L 1.46875 -7.484375 L 0.25 -7.484375 L 0.25 -8.15625 L 1.484375 -8.71875 L 2.046875 -10.546875 L 2.875 -10.546875 L 2.875 -8.578125 L 5.359375 -8.578125 L 5.359375 -7.484375 L 2.875 -7.484375 L 2.875 -2.53125 C 2.875 -2.007812 3 -1.617188 3.25 -1.359375 C 3.5 -1.109375 3.820312 -0.984375 4.21875 -0.984375 Z M 4.21875 -0.984375 "/>
</g>
<g id="glyph-0-7">
<path d="M 4.671875 -8.734375 C 5.410156 -8.734375 6.039062 -8.570312 6.5625 -8.25 C 7.09375 -7.9375 7.5 -7.488281 7.78125 -6.90625 C 8.0625 -6.320312 8.203125 -5.640625 8.203125 -4.859375 L 8.203125 -4.015625 L 2.34375 -4.015625 C 2.363281 -3.046875 2.609375 -2.304688 3.078125 -1.796875 C 3.554688 -1.296875 4.222656 -1.046875 5.078125 -1.046875 C 5.617188 -1.046875 6.097656 -1.09375 6.515625 -1.1875 C 6.941406 -1.289062 7.378906 -1.4375 7.828125 -1.625 L 7.828125 -0.40625 C 7.390625 -0.207031 6.957031 -0.0664062 6.53125 0.015625 C 6.101562 0.109375 5.597656 0.15625 5.015625 0.15625 C 4.203125 0.15625 3.484375 -0.00390625 2.859375 -0.328125 C 2.234375 -0.660156 1.742188 -1.15625 1.390625 -1.8125 C 1.046875 -2.46875 0.875 -3.269531 0.875 -4.21875 C 0.875 -5.15625 1.03125 -5.957031 1.34375 -6.625 C 1.664062 -7.300781 2.109375 -7.820312 2.671875 -8.1875 C 3.242188 -8.550781 3.910156 -8.734375 4.671875 -8.734375 Z M 4.65625 -7.578125 C 3.976562 -7.578125 3.445312 -7.359375 3.0625 -6.921875 C 2.675781 -6.492188 2.445312 -5.898438 2.375 -5.140625 L 6.734375 -5.140625 C 6.722656 -5.859375 6.550781 -6.441406 6.21875 -6.890625 C 5.894531 -7.347656 5.375 -7.578125 4.65625 -7.578125 Z M 4.65625 -7.578125 "/>
</g>
<g id="glyph-0-8">
<path d="M 4.609375 -8.71875 C 5.648438 -8.71875 6.421875 -8.488281 6.921875 -8.03125 C 7.429688 -7.570312 7.6875 -6.84375 7.6875 -5.84375 L 7.6875 0 L 6.65625 0 L 6.390625 -1.21875 L 6.3125 -1.21875 C 5.945312 -0.75 5.554688 -0.398438 5.140625 -0.171875 C 4.734375 0.046875 4.164062 0.15625 3.4375 0.15625 C 2.65625 0.15625 2.007812 -0.046875 1.5 -0.453125 C 0.988281 -0.867188 0.734375 -1.515625 0.734375 -2.390625 C 0.734375 -3.234375 1.066406 -3.890625 1.734375 -4.359375 C 2.410156 -4.828125 3.445312 -5.082031 4.84375 -5.125 L 6.296875 -5.171875 L 6.296875 -5.6875 C 6.296875 -6.394531 6.140625 -6.882812 5.828125 -7.15625 C 5.523438 -7.4375 5.09375 -7.578125 4.53125 -7.578125 C 4.082031 -7.578125 3.65625 -7.507812 3.25 -7.375 C 2.84375 -7.25 2.460938 -7.097656 2.109375 -6.921875 L 1.6875 -7.984375 C 2.050781 -8.179688 2.488281 -8.351562 3 -8.5 C 3.519531 -8.644531 4.054688 -8.71875 4.609375 -8.71875 Z M 5.03125 -4.140625 C 3.957031 -4.097656 3.210938 -3.925781 2.796875 -3.625 C 2.390625 -3.332031 2.1875 -2.914062 2.1875 -2.375 C 2.1875 -1.882812 2.332031 -1.523438 2.625 -1.296875 C 2.925781 -1.078125 3.304688 -0.96875 3.765625 -0.96875 C 4.484375 -0.96875 5.082031 -1.164062 5.5625 -1.5625 C 6.039062 -1.96875 6.28125 -2.585938 6.28125 -3.421875 L 6.28125 -4.1875 Z M 5.03125 -4.140625 "/>
</g>
<g id="glyph-0-9">
<path d="M 6.9375 -2.375 C 6.9375 -1.539062 6.628906 -0.910156 6.015625 -0.484375 C 5.398438 -0.0546875 4.566406 0.15625 3.515625 0.15625 C 2.921875 0.15625 2.40625 0.109375 1.96875 0.015625 C 1.539062 -0.078125 1.160156 -0.210938 0.828125 -0.390625 L 0.828125 -1.65625 C 1.171875 -1.488281 1.582031 -1.332031 2.0625 -1.1875 C 2.550781 -1.039062 3.046875 -0.96875 3.546875 -0.96875 C 4.265625 -0.96875 4.78125 -1.082031 5.09375 -1.3125 C 5.414062 -1.539062 5.578125 -1.847656 5.578125 -2.234375 C 5.578125 -2.453125 5.519531 -2.644531 5.40625 -2.8125 C 5.289062 -2.988281 5.078125 -3.160156 4.765625 -3.328125 C 4.460938 -3.492188 4.03125 -3.6875 3.46875 -3.90625 C 2.914062 -4.113281 2.441406 -4.320312 2.046875 -4.53125 C 1.648438 -4.75 1.34375 -5.007812 1.125 -5.3125 C 0.914062 -5.613281 0.8125 -6 0.8125 -6.46875 C 0.8125 -7.1875 1.109375 -7.742188 1.703125 -8.140625 C 2.296875 -8.535156 3.070312 -8.734375 4.03125 -8.734375 C 4.550781 -8.734375 5.035156 -8.679688 5.484375 -8.578125 C 5.941406 -8.484375 6.367188 -8.34375 6.765625 -8.15625 L 6.28125 -7.046875 C 5.925781 -7.191406 5.550781 -7.316406 5.15625 -7.421875 C 4.757812 -7.523438 4.351562 -7.578125 3.9375 -7.578125 C 3.363281 -7.578125 2.921875 -7.484375 2.609375 -7.296875 C 2.304688 -7.117188 2.15625 -6.867188 2.15625 -6.546875 C 2.15625 -6.304688 2.222656 -6.101562 2.359375 -5.9375 C 2.503906 -5.78125 2.738281 -5.625 3.0625 -5.46875 C 3.382812 -5.3125 3.820312 -5.125 4.375 -4.90625 C 4.914062 -4.707031 5.378906 -4.5 5.765625 -4.28125 C 6.148438 -4.070312 6.441406 -3.816406 6.640625 -3.515625 C 6.835938 -3.210938 6.9375 -2.832031 6.9375 -2.375 Z M 6.9375 -2.375 "/>
</g>
<g id="glyph-0-10">
<path d="M 2.765625 -8.59375 C 2.765625 -8.164062 2.738281 -7.765625 2.6875 -7.390625 L 2.78125 -7.390625 C 3.0625 -7.828125 3.4375 -8.15625 3.90625 -8.375 C 4.382812 -8.601562 4.898438 -8.71875 5.453125 -8.71875 C 6.503906 -8.71875 7.289062 -8.46875 7.8125 -7.96875 C 8.332031 -7.476562 8.59375 -6.679688 8.59375 -5.578125 L 8.59375 0 L 7.203125 0 L 7.203125 -5.484375 C 7.203125 -6.859375 6.5625 -7.546875 5.28125 -7.546875 C 4.320312 -7.546875 3.660156 -7.273438 3.296875 -6.734375 C 2.941406 -6.203125 2.765625 -5.4375 2.765625 -4.4375 L 2.765625 0 L 1.359375 0 L 1.359375 -12.15625 L 2.765625 -12.15625 Z M 2.765625 -8.59375 "/>
</g>
<g id="glyph-0-11">
<path d="M 10.609375 0 L 8.921875 0 L 2.8125 -9.484375 L 2.75 -9.484375 C 2.769531 -9.109375 2.796875 -8.644531 2.828125 -8.09375 C 2.859375 -7.539062 2.875 -6.972656 2.875 -6.390625 L 2.875 0 L 1.546875 0 L 1.546875 -11.421875 L 3.21875 -11.421875 L 9.3125 -1.96875 L 9.375 -1.96875 C 9.363281 -2.132812 9.347656 -2.390625 9.328125 -2.734375 C 9.316406 -3.078125 9.300781 -3.453125 9.28125 -3.859375 C 9.269531 -4.265625 9.265625 -4.632812 9.265625 -4.96875 L 9.265625 -11.421875 L 10.609375 -11.421875 Z M 10.609375 0 "/>
</g>
<g id="glyph-0-12">
<path d="M 5.484375 -8.734375 C 6.515625 -8.734375 7.289062 -8.484375 7.8125 -7.984375 C 8.332031 -7.492188 8.59375 -6.691406 8.59375 -5.578125 L 8.59375 0 L 7.203125 0 L 7.203125 -5.484375 C 7.203125 -6.859375 6.5625 -7.546875 5.28125 -7.546875 C 4.332031 -7.546875 3.675781 -7.28125 3.3125 -6.75 C 2.945312 -6.21875 2.765625 -5.453125 2.765625 -4.453125 L 2.765625 0 L 1.359375 0 L 1.359375 -8.578125 L 2.5 -8.578125 L 2.703125 -7.40625 L 2.78125 -7.40625 C 3.0625 -7.851562 3.445312 -8.1875 3.9375 -8.40625 C 4.425781 -8.625 4.941406 -8.734375 5.484375 -8.734375 Z M 5.484375 -8.734375 "/>
</g>
</g>
</defs>
<rect x="-60" y="-4.2" width="720" height="50.4" fill="rgb(100%, 100%, 100%)" fill-opacity="1"/>
<path fill="none" stroke-width="2" stroke-linecap="butt" stroke-linejoin="miter" stroke="rgb(0%, 0%, 0%)" stroke-opacity="1" stroke-miterlimit="10" d="M 20.691406 31.035156 L 144.828125 31.035156 "/>
<g fill="rgb(0%, 0%, 0%)" fill-opacity="1">
<use xlink:href="#glyph-0-0" x="64.75" y="26.035156"/>
<use xlink:href="#glyph-0-1" x="73.534" y="26.035156"/>
<use xlink:href="#glyph-0-2" x="83.214" y="26.035156"/>
<use xlink:href="#glyph-0-3" x="87.342" y="26.035156"/>
<use xlink:href="#glyph-0-4" x="91.47" y="26.035156"/>
</g>
<path fill="none" stroke-width="2" stroke-linecap="butt" stroke-linejoin="miter" stroke="rgb(0%, 0%, 0%)" stroke-opacity="1" stroke-dasharray="1 3" stroke-miterlimit="10" d="M 165.515625 31.035156 L 289.65625 31.035156 "/>
<g fill="rgb(0%, 0%, 0%)" fill-opacity="1">
<use xlink:href="#glyph-0-5" x="201.601563" y="26.035156"/>
<use xlink:href="#glyph-0-1" x="213.281563" y="26.035156"/>
<use xlink:href="#glyph-0-6" x="222.961563" y="26.035156"/>
<use xlink:href="#glyph-0-6" x="228.737563" y="26.035156"/>
<use xlink:href="#glyph-0-7" x="234.513563" y="26.035156"/>
<use xlink:href="#glyph-0-4" x="243.537563" y="26.035156"/>
</g>
<path fill="none" stroke-width="2" stroke-linecap="butt" stroke-linejoin="miter" stroke="rgb(0%, 0%, 0%)" stroke-opacity="1" stroke-dasharray="4 4" stroke-miterlimit="10" d="M 310.34375 31.035156 L 434.484375 31.035156 "/>
<g fill="rgb(0%, 0%, 0%)" fill-opacity="1">
<use xlink:href="#glyph-0-5" x="343.78125" y="26.035156"/>
<use xlink:href="#glyph-0-8" x="355.46125" y="26.035156"/>
<use xlink:href="#glyph-0-9" x="364.43725" y="26.035156"/>
<use xlink:href="#glyph-0-10" x="372.10125" y="26.035156"/>
<use xlink:href="#glyph-0-7" x="381.98925" y="26.035156"/>
<use xlink:href="#glyph-0-4" x="391.01325" y="26.035156"/>
</g>
<g fill="rgb(0%, 0%, 0%)" fill-opacity="1">
<use xlink:href="#glyph-0-11" x="496.496094" y="26.035156"/>
<use xlink:href="#glyph-0-1" x="508.656094" y="26.035156"/>
<use xlink:href="#glyph-0-12" x="518.336094" y="26.035156"/>
<use xlink:href="#glyph-0-7" x="528.224094" y="26.035156"/>
</g>
</svg>
